<svg width="16" height="16" viewBox="0 0 16 16" fill="none" xmlns="http://www.w3.org/2000/svg">
<path d="M7.13398 1.5C7.51888 0.833333 8.48112 0.833333 8.86603 1.5L14.0622 10.5C14.4471 11.1667 13.966 12 13.1962 12H2.80385C2.03405 12 1.55292 11.1667 1.93782 10.5L7.13398 1.5Z" fill="url(#paint0_linear_2_59)"/>
<path d="M8.44922 8.26562H7.76953L7.56641 4.28906H8.64844L8.44922 8.26562ZM7.51953 9.51172C7.51953 9.31901 7.57031 9.17318 7.67188 9.07422C7.77344 8.97266 7.91797 8.92188 8.10547 8.92188C8.29036 8.92188 8.43229 8.97396 8.53125 9.07812C8.63021 9.18229 8.67969 9.32682 8.67969 9.51172C8.67969 9.69661 8.62891 9.84375 8.52734 9.95312C8.42839 10.0599 8.28776 10.1133 8.10547 10.1133C7.92057 10.1133 7.77604 10.0612 7.67188 9.95703C7.57031 9.85286 7.51953 9.70443 7.51953 9.51172Z" fill="white"/>
<defs>
<linearGradient id="paint0_linear_2_59" x1="8" y1="0" x2="8" y2="16" gradientUnits="userSpaceOnUse">
<stop stop-color="#EB0DFE"/>
<stop offset="1" stop-color="#11CADE"/>
</linearGradient>
</defs>
</svg>
